<svg id="Layer_1" data-name="Layer 1" xmlns="http://www.w3.org/2000/svg" viewBox="0 0 189.33 113.22"><path d="M59.53,39.46c.11-.29.37-.26.61-.28l0,0a.8.8,0,0,1-.61.28Z" transform="translate(112.57 -8.1)"/><polygon points="170.61 33.45 170.53 33.41 170.57 33.48 170.61 33.45"/><polygon points="171.76 31.66 171.71 31.72 171.79 31.7 171.76 31.66"/><path d="M59.22,39.79a.43.43,0,0,1,.31-.33l0,0-.31.33Z" transform="translate(112.57 -8.1)"/><path d="M76.75,120.73c0,.11,0,.2-.13.18a.39.39,0,0,1-.2-.18c0-.07,0-.24,0-.24S76.69,120.59,76.75,120.73Z" transform="translate(112.57 -8.1)"/><path d="M-82.69,66H-83C-82.92,65.79-82.81,65.83-82.69,66Z" transform="translate(112.57 -8.1)"/><path d="M-57.17,52a2.06,2.06,0,0,0-.16,1.73,4.23,4.23,0,0,1,.16,1c-.14,1,.36,1.61,1.37,2a1.68,1.68,0,0,1-2,.59c-.75-.23-1,0-1.17.71a2,2,0,0,0-.05.6c.25,2.16-.54,4.16-1,6.21a28.38,28.38,0,0,1-2.07,5.77,12.56,12.56,0,0,0-1.15,5.85c0,.43,0,.73.68.69.79,0,1,.8,1.34,1.29a3.34,3.34,0,0,1,.59,1.35c.08.37.13.65.49.83a1.27,1.27,0,0,1,.65,1.66,22.76,22.76,0,0,0-.76,5.2,12.08,12.08,0,0,1-1,4.09,17.67,17.67,0,0,0-.81,4.4,2.77,2.77,0,0,1-.51,1.53c-.23.27-.42.39-.74.1s-.66-.12-.9.31c-.6,1.09-1.4,2.09-1.21,3.47a1.93,1.93,0,0,1-.42,1.12c-.62-2.26.57-4.25,1-6.33a.82.82,0,0,0-1.13.11,3.5,3.5,0,0,1-1.14.72,2,2,0,0,1-2.31-.45.37.37,0,0,1,.13-.62,2.74,2.74,0,0,1,1.6-.38c1.08.14,1.61-.4,2.1-1.31a9.29,9.29,0,0,0,.77-2.26.74.74,0,0,0-.47-1c-1-.3-1.66-1.48-2.94-1.27-.38.07-.57-.37-.71-.69-.23-.51-.41-1-.63-1.54-.13-.27-.28-.57-.62-.59a.75.75,0,0,0-.78.6c-.17,1-.91,1.37-1.62,1.85-.53.35-.85.3-.94-.35s-.29-.56-.71-.38-.91.52-.92-.47c0-.63-.58-.79-1.07-.34A5.14,5.14,0,0,1-78.1,88.9c-.77.26-1,1.13-1.48,1.66-.68.68-.82.79-1.4.1-.42-.48-1-.71-1.31-1.41-.35-.91-.93-.9-1.51-.1-.14.2-.24.44-.35.63-.55,0-.62-.52-1-.68a.76.76,0,0,0-.83.19c-.26.23,0,.46.13.64a4.63,4.63,0,0,1,1,3.11A5.68,5.68,0,0,0-84.3,96a.51.51,0,0,1,0,.69c-.33.31-.53,0-.76-.2a.49.49,0,0,0-.58-.11c.15,1.72,1.4,3.2,1.52,5a16.39,16.39,0,0,1-4-3.85c.15-.37.77-.31.77-.82,0-.07-.09-.19-.14-.2-1,0-1.11-.13-1.15-.9a3.34,3.34,0,0,1,.08-1.05c.16-.59.24-1-.52-1.29s-.67-1.26-1-1.9c-.09-.16,0-.45-.11-.58C-91.64,89-90.95,87-90.82,85a40.25,40.25,0,0,1,.35-4.65c.26-1.53.42-3.08.61-4.62a3.09,3.09,0,0,0-1-3,3.2,3.2,0,0,1-.9-1.2,45,45,0,0,1-2.35-6.14c-.53-2.13-1.26-4.21-1.72-6.36A1.24,1.24,0,0,0-97,57.91a2.19,2.19,0,0,1-1.38-.55c1.23-.17,1.52-.48,1.16-1.59A2.83,2.83,0,0,1-97,53.05a1.11,1.11,0,0,0,.11-.88c-.18-.83-.31-1.68-.52-2.51s-.4-.82-1.15-.58c-.9.28-1.16.17-1.18-.71s-.3-1.89-.34-2.84a1.46,1.46,0,0,1,.93-1.65c-.62,1.41.31,2.46.35,3.65a.43.43,0,0,0,.37.42.41.41,0,0,0,.45-.32c.22-.82.49-1.64.64-2.48a1.52,1.52,0,0,0-1.07-1.79,2.31,2.31,0,0,1-1.67-1.5c0-.06-.18,0-.47-.13.74,1.56-.45,2.9-.31,4.38,0-1.26-.14-2.51-.13-3.76s.49-1.49,1.63-.91a10.48,10.48,0,0,1,.91.55,17.63,17.63,0,0,0-.59-3.43c-.24-1.28-.64-2.55-.86-3.82a26.15,26.15,0,0,1-.62-5.65c0-1.3-.06-2.59,0-3.89a7.69,7.69,0,0,1,2.23-4.57c.42-.49,1.73-.45,1.08-1.65a.58.58,0,0,1,.34-.22c.75-.05,1.37-.7,2.28-.27a1.25,1.25,0,0,0,1.51-.86c.12-.32.22-.66.32-1,1.31-4.3,4.43-6.67,8.54-8a2,2,0,0,1,.59-.12c2.69-.1,5.37-.65,8.08-.34a18,18,0,0,1,4,.75A18.36,18.36,0,0,0-68,9.53c4.12.65,8,1.85,9.88,6.14A6.21,6.21,0,0,0-57.36,17a12.52,12.52,0,0,1,3,7.74,9.65,9.65,0,0,0,.44,2.82c.64,2.07.23,4.08-.06,6.12s-1.12,4.26-1.56,6.43c0,.19-.12.38,0,.58.48,0,.76-.44,1.18-.59a1.07,1.07,0,0,1,1.56,1,8.32,8.32,0,0,1-.2,1.79,7.21,7.21,0,0,0-.14,3.18c.27,1.19-.15,2.55-.27,3.84-.42,0-.37-.33-.33-.57a9.48,9.48,0,0,0-.09-4.17c-.35-1.22,0-2.49.1-3.74,0-.29.19-.62-.14-.81s-.59,0-.82.23A5.26,5.26,0,0,0-56.51,44c-.08.69-.18,1.39-.28,2.15a2.45,2.45,0,0,0,2.26-.46c.41.23.33.57.43.84s.24.79-.2,1.08a1.35,1.35,0,0,1-1.41.17c-1.18-.55-1-.5-1.2.83-.18,1.12-.16,2.25-.29,3.37ZM-70.68,69.9c0,.95,0,.94-.85,2-.31.38-.17.88-.15,1.32,0,.86.22,1,1.08,1.13A6.73,6.73,0,0,0-68.37,74c.7-.17,1.19-.41,1.25-1.25a1.09,1.09,0,0,1,1.31-1.13c1.2.21,1.68-.67,2.08-1.39a29.39,29.39,0,0,0,1.71-4c.47-1.32.74-2.72,1.25-4a30,30,0,0,0,1.18-3.42c.57-2.29,1.09-4.6,1.74-6.87a10.19,10.19,0,0,0,.31-4.77,44.12,44.12,0,0,1-.58-9.32,6.05,6.05,0,0,0-.59-2.78c-.24-.5-.46-1-.66-1.52-.57-1.5-1.16-3-1.68-4.52a2.91,2.91,0,0,0-1.12-1.55c-.59-.4-.19.4-.46.42-.09-.05-.19-.07-.24-.14a5,5,0,0,0-4.26-2.14,1.64,1.64,0,0,1-1.21-.48c-1.49-1.34-2.44-1.43-4.19-.54a3.2,3.2,0,0,1-1.44.42,2,2,0,0,0-1.5.59,1.93,1.93,0,0,1-2.49.22c-.35-.21-.68-.43-1-.62s-.61-.19-.77.16c-.41.81-.85.47-1.3.07-.19-.17-.35-.37-.54-.53-1.24-1.11-2.3-1.49-3.81-.57a2.06,2.06,0,0,1-2.13.33.42.42,0,0,0-.56.07c-.47.74-1.37,1-1.92,1.54a27.83,27.83,0,0,0-3.59,3.61c-.21.3-.38.52-.21.94a2.25,2.25,0,0,1-.49,2.48,2.21,2.21,0,0,0-.59.86,18.3,18.3,0,0,0-1.24,5.72,28.36,28.36,0,0,1-.63,7,10.12,10.12,0,0,0,.18,4.77c.79,3.43,1.85,6.79,2.37,10.29a3.12,3.12,0,0,0,1.41,2.4c1.29.72,1.75,2.47,3.42,2.72.17,0,.29.39.43.59a3.88,3.88,0,0,0,2.82,1.8c.92.09,1.14.56,1,1.48a9.41,9.41,0,0,0-.13,1.19,1,1,0,0,0,.85,1.22,2.76,2.76,0,0,1,2.1,2.68,3.21,3.21,0,0,1,1.38-.48c.4,0,.53-.9,1-1.14.33,0,.4.3.56.48.38.46.73.57,1-.11.15-.45.42-.29.71-.21a4.66,4.66,0,0,1,1.62,1c.37-.78-.14-1.78.89-2.21.23-.09,0-.6-.19-.55-1,.24-1.85-.65-2.88-.2a1.52,1.52,0,0,1-1.77-.5,2.24,2.24,0,0,0-1-.62c-1-.3-1-.49-.63-1.39s.4-1.11-.55-1.67a5.17,5.17,0,0,0-1.14-.35c-.46-.16-.69-.41-.41-.9a1.1,1.1,0,0,0,0-1.27c-.15-.21-.33-.44-.61-.33s-.22.39-.08.61.34.65-.06.91a.62.62,0,0,1-.83-.06A1.29,1.29,0,0,0-87.2,67a16.09,16.09,0,0,0-.41-1.71c-.51-2.28.64-3.17,2.49-3,.34,0,.82,0,1,.1.57.42.9,0,1.29-.21.65,1.1-.48,1.54-.91,2.27.77.43,1.36,0,1.94-.18a5.46,5.46,0,0,1,4.39.08,2.7,2.7,0,0,0,2.31,0,5.35,5.35,0,0,1,4-.16,4,4,0,0,0,3,0,10.3,10.3,0,0,0-3.64-.73,10.82,10.82,0,0,1-2.93-.59c-.67-.25-.41-1.35-.61-2.06,0-.14-.12-.3-.29-.28a.63.63,0,0,0-.37.21c-.23.36-.12.78-.18,1.17s.64.81.34,1.4a2.5,2.5,0,0,1-1.62-.11c-.54-.16-1-.74-1.65-.23-.64-.54-1,0-1.44.32a1.82,1.82,0,0,1-1,.11c-.5,0-.72-.27-.54-.8A2.66,2.66,0,0,1-80.23,61c.83-.2.63-.74,1-1.1-2.14-1.16-2.25-1.29-2.59-3a1.4,1.4,0,0,0,1.64.86,3.23,3.23,0,0,1,3.13,1,1.82,1.82,0,0,0,2.74,0A3.55,3.55,0,0,1-70,58.07c-.75,1.26-.9,1.37-2,1.49.19-.47,1-.47,1-1.27a9.12,9.12,0,0,0-3.22,1.61c.44.31.82.12,1.15.23.7.23,1.53.36,1.85,1.12.2.48.37.66.86.51a1.31,1.31,0,0,1,1,.27c.33.18.77.34,1,.11.91-.86,1.71-.1,2.51.12A2,2,0,0,1-65,65.12c-.12.17-.27.38-.47.31-.73-.26-1.51.34-2,.15-1.17-.43-1.45.37-1.82,1a6.21,6.21,0,0,1-1.58,1.77,9,9,0,0,1-2.47,1.27C-72.47,70.31-71.62,70.05-70.68,69.9Zm-.11-3.78c-1.85.23-3.63.61-5.49.66s-3.62-.89-5.72-1a4.33,4.33,0,0,0,1.4,1,7.73,7.73,0,0,1,1.38.89,5.49,5.49,0,0,0,5.72.4C-72.58,67.38-71.69,66.74-70.79,66.12Zm-1.95-55.4a2.68,2.68,0,0,0-1.54-.08,15.58,15.58,0,0,1-5.36.14,11.14,11.14,0,0,0-3.87.15c-.83.1-1.63.46-2.47.61-.28.05-.5.19-.39.5s.39.26.63.18l.83-.35c.37-.16.74-.5,1.12-.34,1,.41,1.89,0,2.8-.18a8.64,8.64,0,0,1,3-.11A12.84,12.84,0,0,0-72.74,10.72ZM-75.55,9a4.52,4.52,0,0,0-4.81,1C-78.87,9.51-77.34,9.29-75.55,9Zm2.87,7.14c-1.9-.38-3.38.88-5.09,1.28A13.28,13.28,0,0,0-72.68,16.11Zm.45,58.46c.51-.86-.08-1.28-.36-1.74-.58-.94-.66-.92-1.65.07C-73.28,73-72.89,73.82-72.23,74.57Zm-6.09-58.74c1.4-.78,3.09-.72,4.78-1.59A9.29,9.29,0,0,0-78.32,15.83Zm14,78.73A9.49,9.49,0,0,0-63,91.78a.42.42,0,0,0-.29-.59c-.32-.06-.46.22-.46.46C-63.77,92.66-64.24,93.56-64.31,94.56Zm8-60.56c.33-.71,0-1.43.12-2.14.06-.31,0-.66-.47-.54A.47.47,0,0,0-57,32,8.47,8.47,0,0,1-56.27,34ZM-80.14,58.49a3.89,3.89,0,0,0,2.37,1A1.88,1.88,0,0,0-80.14,58.49Zm22.22-30.8c-.31.28.26.63,0,.8s-.43.2-.19.49.42,0,.57-.13.32-.37.48-.55A1.41,1.41,0,0,0-57.92,27.69ZM-74.74,69.82a3.65,3.65,0,0,0-2.35-.2A2.83,2.83,0,0,0-74.74,69.82Zm-9.68-59.43c-.71.17-1.54-.71-2.4.47A7.66,7.66,0,0,1-84.42,10.39Zm5,12.63c-.54.12-.91.19-1.27.3a.31.31,0,0,0-.2.46.31.31,0,0,0,.49.1C-80.09,23.64-79.65,23.58-79.4,23Zm6.75,65.59c.36-.23.75-.44.41-1-.05-.09-.28-.18-.36-.13-.42.24-.32.62-.2,1C-72.79,88.53-72.73,88.55-72.65,88.61Zm-6.78-76.28c.76-.06,1.29,0,1.77-.48C-78.27,11.63-78.73,11.78-79.43,12.33ZM-78,23.59c-.2,0-.42.05-.43.29a.4.4,0,0,0,.45.44.37.37,0,0,0,.42-.32C-77.55,23.67-77.79,23.61-78,23.59Z" transform="translate(112.57 -8.1)"/><path d="M-97.67,52.86c-.08.32-.15.59-.49.44a3.75,3.75,0,0,1-1.33-2.2c0-.21.06-.42.29-.46a.48.48,0,0,1,.4.1A3.85,3.85,0,0,1-97.67,52.86Z" transform="translate(112.57 -8.1)"/><path d="M-57.2,52c.5-1,1.72-1.14,2.32-2a.33.33,0,0,1,.52,0,.47.47,0,0,1,0,.4,2.06,2.06,0,0,1-.87.81,2.38,2.38,0,0,0-1.5,1.47c-.52-.13-.36-.5-.42-.76Z" transform="translate(112.57 -8.1)"/><path d="M-83.55,45.51c.6-.39,1.15,0,1.75-.41-1.17-.4-1.64-1.69-3-1.88-.16,1.13-.42,2.17-1.79,2.21-1,0-1.52-.56-1.92-2.11-.1,0-.21-.06-.28,0-.61.27-1.31.61-1.25,1.33s.84,1,1.46,1.14a11,11,0,0,0,3.38.51c.54,0,1.09,0,1.67,0,0,.45-.36.43-.59.51a21.66,21.66,0,0,0-2.8,1,2.58,2.58,0,0,1-2.93-.54c-.46-.39-.86-.85-1.31-1.26a2,2,0,0,0-1.63-.56,1.2,1.2,0,0,1-1.29-1.81,3.25,3.25,0,0,0,.16-2c-.39-1.79.32-2.75,2.13-3A23.45,23.45,0,0,1-88.85,38c1.88,0,3.65.58,5.5.74.6,0,1.19.15,1.79.24,1.46.23,2,.77,2,2.27a4.41,4.41,0,0,0,.73,2.1,4.27,4.27,0,0,1-.59,4.89c-.57.6-1.12.13-1.68,0s-.59-.6-.53-1.06a3.83,3.83,0,0,1,.16-.58c.15-.53-.12-.75-.6-.8A2.38,2.38,0,0,1-83.55,45.51ZM-84.85,41a8,8,0,0,0-5.7-.14.32.32,0,0,0-.23.47.46.46,0,0,0,.51.25c1.48-.43,3-.12,4.49-.22C-85.5,41.37-85.18,41.47-84.85,41Zm-.85,1.06a6.22,6.22,0,0,0-2.45,0A7.5,7.5,0,0,0-85.7,42.09Z" transform="translate(112.57 -8.1)"/><path d="M-70.78,46.8A7.06,7.06,0,0,0-71.61,48c-.24.61-.76.77-1.24,1s-.94.1-1.07-.43c-.5-2-1.28-3.95-.45-6a6.54,6.54,0,0,0,.28-1.16c.31-1.61.85-2.18,2.47-2.36,1.05-.11,2.09-.26,3.14-.35,1.24-.11,2.44-.42,3.69-.54a7.79,7.79,0,0,1,4,.9c.79.34.86,1,.64,2a9.57,9.57,0,0,0-.37,3,1.2,1.2,0,0,1-.87,1.41A4.67,4.67,0,0,0-63.52,47a4,4,0,0,1-2.92,1.35c-.2,0-.4,0-.6-.06-.66,0,.19-1.45-.79-1-.63.31-.92-.14-1.37-.17s-1.09-.19-1.63-.29c.18-.08.38-.27.53-.23,1.56.4,3-.09,4.56-.35.8-.14,1.6-.37,1.68-1.22s-.73-1.21-1.46-1.45c-.07,0-.17.07-.26.1-.26,1.45-.77,2.18-1.64,2.16-1.48,0-1.78-1.18-2-2.35-1.28.17-1.59,1.4-2.57,1.82a.71.71,0,0,0,.8.21c.31-.06.59-.06.7.39a6.06,6.06,0,0,0-.75,0c-.4.06-1.07-.12-.93.61s.66.44,1.1.3Zm4.39-5a1,1,0,0,1,1-.36c.3,0,.59.11.89.15s.52,0,.54-.35-.16-.35-.38-.39a11.59,11.59,0,0,0-1.93-.25,11.31,11.31,0,0,0-2.21.41.49.49,0,0,0-.25.83c.15.18.56.13.85.19s-.54.6.21.52a6.86,6.86,0,0,1,3.83.68C-64.6,42.21-65.58,42.34-66.39,41.79Z" transform="translate(112.57 -8.1)"/><path d="M-81,55.59a4.5,4.5,0,0,1,1.26-3.68c.28-.27.57-.2.68.17a1.62,1.62,0,0,1-.15,1.44C-79.73,54.24-80.37,54.9-81,55.59Z" transform="translate(112.57 -8.1)"/><path d="M-108.5,114.51c-.31,1.16-.62,2.32-.94,3.48a8.66,8.66,0,0,1-.9,2.46,1.42,1.42,0,0,1-1.34.73,1,1,0,0,1-.8-1.39c.08-.17.17-.17.33-.14a1.32,1.32,0,0,0,1.43-.7,8.81,8.81,0,0,0,.91-2.36,38.66,38.66,0,0,0,1.18-4.5.52.52,0,0,1,.11-.25,1.2,1.2,0,0,1,1.65.51,14.78,14.78,0,0,1,.17,2.39c.06,1.07.08,2.14.13,3.2,0,.3,0,.59.07,1a3,3,0,0,0,.18-.29c.93-1.93,1.85-3.87,2.78-5.81.07-.16.13-.32.19-.48.21-.62.5-.76,1.26-.61.47.1.69.39.6,1-.17,1.19-.39,2.38-.6,3.57-.16.94-.33,1.88-.49,2.82a.72.72,0,0,0,.27.84.8.8,0,0,0,.89-.12,2.56,2.56,0,0,0,.66-.73c0-.06.08-.14.18-.12a.19.19,0,0,1,.14.21.86.86,0,0,1,0,.28,2.52,2.52,0,0,1-2.53,1.66,1.37,1.37,0,0,1-1.22-1.3,12.14,12.14,0,0,1,.34-3.12l.37-2.12a.73.73,0,0,0-.31.43q-1.09,2.26-2.17,4.55c-.14.3-.26.6-.37.91-.2.58-.39.7-1,.66-.5,0-.68-.37-.71-.79-.07-1-.12-2.1-.17-3.15s-.08-1.82-.12-2.73Z" transform="translate(112.57 -8.1)"/><path d="M-45.43,119.27c.27-2,.8-3.85.88-5.82,0-.42,0-.84,0-1.27,0-.19-.27-.46.15-.55s.74.07.81.43a2.08,2.08,0,0,1,0,.66c-.15,1.49-.49,3-.72,4.45a35,35,0,0,0-.57,3.67.27.27,0,0,1-.27.3c-1,.11-1.55.06-1.86-1.06-.58-2.09-1.19-4.16-1.78-6.24a.37.37,0,0,0-.16-.22c-.1.52-.2,1-.29,1.57a24,24,0,0,0-.62,5c0,.18,0,.35,0,.52s.3.5-.15.59-.77-.09-.83-.53a5.57,5.57,0,0,1,.14-1.68c.35-2,.72-4.07,1.08-6.11.1-.56.05-.59-.53-.49a1.34,1.34,0,0,0-1.26,1.34.53.53,0,0,0,.39.53c.37.1.4.29.11.56a1.32,1.32,0,0,1-2-.56,1.78,1.78,0,0,1,.54-1.84,3,3,0,0,1,1.35-.65,9.72,9.72,0,0,1,2.64-.1c.56,0,.81.43,1,.9l1.14,4c.21.77.44,1.54.65,2.3C-45.58,119.05-45.57,119.18-45.43,119.27Z" transform="translate(112.57 -8.1)"/><path d="M-75.61,115.41A4,4,0,0,0-73.9,112c0-.24,0-.33.28-.37.83-.14,1.32.36,1.14,1.18a2.51,2.51,0,0,1-.55,1,18.3,18.3,0,0,1-2.06,2.07.63.63,0,0,0-.22.73c.25.88.45,1.76.71,2.63s.87,1.07,1.54.36a4.37,4.37,0,0,0,.37-.48c.06-.08.12-.17.23-.13a.24.24,0,0,1,.13.28,1.8,1.8,0,0,1-.06.22,2.4,2.4,0,0,1-1.76,1.62,1.54,1.54,0,0,1-1.86-.86,10.11,10.11,0,0,1-.71-2.33c-.11-.42-.21-.4-.48-.13A3.78,3.78,0,0,0-78.57,121c0,.11,0,.23-.12.27a1.21,1.21,0,0,1-1-.09.8.8,0,0,1-.35-.83,2.26,2.26,0,0,1,.57-1.22A20.39,20.39,0,0,1-77.35,117a.57.57,0,0,0,.22-.65c-.32-1.18-.63-2.36-.92-3.55-.06-.26-.16-.32-.42-.29a1.39,1.39,0,0,0-1.19,1.06.59.59,0,0,0,.51.81c.4.1.15.31.06.43a1.09,1.09,0,0,1-1.16.34,1.1,1.1,0,0,1-1-.87,1.84,1.84,0,0,1,1-2,4.67,4.67,0,0,1,2.52-.47c.92,0,1.17.23,1.41,1.13S-75.85,114.52-75.61,115.41Z" transform="translate(112.57 -8.1)"/><path d="M-60.52,117.75a2.76,2.76,0,0,0-.58.17c-.38.22-.44,0-.48-.3a.83.83,0,0,1,1-.9c.45,0,.58-.16.7-.51.26-.78.54-1.54.82-2.31a2.91,2.91,0,0,1,3.1-2.18c.91,0,1.22.33,1.07,1.22s-.33,1.91-.5,2.87-.39,2.22-.58,3.33a.74.74,0,0,0,.26.85.83.83,0,0,0,.93-.14,2.7,2.7,0,0,0,.6-.66c.05-.08.09-.22.24-.16s.13.17.12.29a.78.78,0,0,1,0,.14,2.5,2.5,0,0,1-2.68,1.69,1.37,1.37,0,0,1-1.08-1.22,5.3,5.3,0,0,1,.07-1.59c.1-.58.1-.59-.47-.59s-.86,0-1.28,0a.42.42,0,0,0-.48.33,10.88,10.88,0,0,1-1,2.33,1.34,1.34,0,0,1-1.26.77,1,1,0,0,1-.76-1.45c.08-.12.15-.11.28-.08a1.22,1.22,0,0,0,1.24-.51A4.39,4.39,0,0,0-60.52,117.75Zm2.72-.72c.17,0,.42.13.48-.21.23-1.37.48-2.74.72-4.11.05-.24,0-.3-.28-.24a2,2,0,0,0-1.31,1.26c-.38.94-.7,1.91-1.05,2.86-.08.2,0,.28.18.3Z" transform="translate(112.57 -8.1)"/><path d="M-66,119.88a6,6,0,0,0,2.15-.27c.27-.1.29.1.32.26a1.1,1.1,0,0,1-1.14,1.3,7.27,7.27,0,0,1-3-.5.67.67,0,0,0-.79.1,1.71,1.71,0,0,1-1.41.4.73.73,0,0,1-.73-.68.66.66,0,0,1,.62-.76c.38,0,.43-.23.49-.54.35-2.08.72-4.14,1.09-6.21.1-.56,0-.6-.51-.51a1.42,1.42,0,0,0-1.25,1c-.13.45,0,.81.4.86.56.08.26.35.11.52a1.3,1.3,0,0,1-2-.5,1.77,1.77,0,0,1,.56-1.87,3.08,3.08,0,0,1,1.72-.7,9.46,9.46,0,0,1,2,0c.54.05.76.28.73.83a30.63,30.63,0,0,1-.53,3.3c-.19,1.19-.4,2.38-.62,3.56-.06.28,0,.35.28.36C-67,119.8-66.49,119.85-66,119.88Z" transform="translate(112.57 -8.1)"/><path d="M-90,116.86a5.19,5.19,0,0,1,2.89-4.75,3.77,3.77,0,0,1,2.72-.26,2.12,2.12,0,0,1,1.33,3,1.46,1.46,0,0,1-1.8.82c-.37-.17-.38-.28-.09-.56a1.91,1.91,0,0,0,.6-1.84.92.92,0,0,0-1.14-.78,2.27,2.27,0,0,0-1.53.94,5.7,5.7,0,0,0-1.09,4.71,2.38,2.38,0,0,0,2.51,2,4.33,4.33,0,0,0,3-1c.09-.08.17-.22.32-.12s.08.25,0,.38a1.48,1.48,0,0,1-.37.49,5,5,0,0,1-4.94,1C-89.22,120.45-90,119.06-90,116.86Z" transform="translate(112.57 -8.1)"/><path d="M-96.77,116.32a.23.23,0,0,0-.08-.11,2.23,2.23,0,0,1-.07-3.68,3.68,3.68,0,0,1,3.83-.52A1.8,1.8,0,0,1-92,114.26a1.2,1.2,0,0,1-1.59.77c-.23-.1-.38-.2-.15-.48a1.72,1.72,0,0,0,.36-1.19.88.88,0,0,0-1.12-.92,2.07,2.07,0,0,0-1.31,3,1.27,1.27,0,0,0,1,.53c.1,0,.25,0,.28.1a.4.4,0,0,1-.15.38,1,1,0,0,1-.59.14,1.84,1.84,0,0,0-1.77,2.19A1.39,1.39,0,0,0-96,120a4.59,4.59,0,0,0,4.11-.75c.12-.08.21-.3.39-.13s0,.3-.06.43a1.9,1.9,0,0,1-.62.64,5.9,5.9,0,0,1-4.91.85,2.21,2.21,0,0,1-1.8-1.89,2.34,2.34,0,0,1,1.31-2.41C-97.32,116.55-97,116.44-96.77,116.32Z" transform="translate(112.57 -8.1)"/></svg>